<svg width="20" height="20" viewBox="0 0 20 20" fill="none" xmlns="http://www.w3.org/2000/svg">
<path d="M3.5498 9.18286V13.3245C3.5498 14.8412 3.5498 14.8412 4.98314 15.8079L8.9248 18.0829C9.51647 18.4245 10.4831 18.4245 11.0748 18.0829L15.0165 15.8079C16.4498 14.8412 16.4498 14.8412 16.4498 13.3245V9.18286C16.4498 7.66619 16.4498 7.66619 15.0165 6.69952L11.0748 4.42452C10.4831 4.08286 9.51647 4.08286 8.9248 4.42452L4.98314 6.69952C3.5498 7.66619 3.5498 7.66619 3.5498 9.18286Z" stroke="#636363" stroke-width="1.5" stroke-linecap="round" stroke-linejoin="round"/>
<path d="M14.5832 6.35835V4.16669C14.5832 2.50002 13.7498 1.66669 12.0832 1.66669H7.9165C6.24984 1.66669 5.4165 2.50002 5.4165 4.16669V6.30002" stroke="#636363" stroke-width="1.5" stroke-linecap="round" stroke-linejoin="round"/>
<path d="M10.525 9.15909L11 9.90076C11.075 10.0174 11.2416 10.1341 11.3666 10.1674L12.2166 10.3841C12.7416 10.5174 12.8833 10.9674 12.5416 11.3841L11.9833 12.0591C11.9 12.1674 11.8333 12.3591 11.8416 12.4924L11.8916 13.3674C11.925 13.9091 11.5416 14.1841 11.0416 13.9841L10.225 13.6591C10.1 13.6091 9.89165 13.6091 9.76665 13.6591L8.94998 13.9841C8.44998 14.1841 8.06665 13.9008 8.09998 13.3674L8.14998 12.4924C8.15831 12.3591 8.09165 12.1591 8.00831 12.0591L7.44998 11.3841C7.10831 10.9674 7.24998 10.5174 7.77498 10.3841L8.62498 10.1674C8.75831 10.1341 8.92498 10.0091 8.99165 9.90076L9.46665 9.15909C9.76665 8.70909 10.2333 8.70909 10.525 9.15909Z" stroke="#636363" stroke-width="1.5" stroke-linecap="round" stroke-linejoin="round"/>
</svg>
